<svg xmlns="http://www.w3.org/2000/svg" viewBox="0 0 256 256">
  <circle r="128" cy="128" cx="128" id="path37" style="fill:#ffffff" />
  <path id="d" style="fill:#44b78b" d="m 108,40 h 32 v 147.6 c -13.6,2.7 -27.4,4.2 -41.3,4.3 C 59.7,191.9 40,174.5 40,141.1 40,109.0 60.9,86.4 94.2,86.4 c 4.6,-0.0 9.2,0.4 13.7,1.6 z m 0.1,73.4 c -3.4,-1.1 -7.1,-1.6 -10.7,-1.6 -16.0,0 -25.4,11.4 -25.4,28.6 0,16.7 8.8,26.0 25.2,26.0 3.6,0 7.1,-0.2 10.8,-0.8 v -52.2 z" />
  <path id="j" style="fill:#44b78b" d="m 192,88 v 73.1 c 0,25.1 -1.8,37.2 -7.4,47.7 C 178.9,219.5 169.1,227.5 158,232 l -30,-14 c 10.7,-3.6 20.7,-10.9 26.2,-20.8 C 158.7,188.1 160,177.7 160,150.2 V 88 Z" />
  <rect id="dot" style="fill:#44b78b" height="32" width="32" y="40" x="160" />
</svg>