<svg xmlns="http://www.w3.org/2000/svg" viewBox="0 0 128 128">
  <circle style="fill:#ffffff" cx="64" cy="64" r="63" />
  <g style="fill:#51be95" transform="matrix(0.24,0,0,0.24,29.5,29)">
    <path d="m 114,0 h 53 v 244 c -27,5 -47,7 -69,7 C 33,251 0,222 0,166 0,112 35,77 91,77 c 8,0 15,0 23,2 z m 1,124 c -6,-2 -11,-2 -17,-2 -26,0 -42,16 -42,45 0,28 14,43 42,43 5,0 10,-0 18,-1 z" />
    <path d="M 255,84 V 206 c 0,42 -3,62 -12,79 -8,16 -20,27 -43,39 l -49,-23 c 23,-10 34,-20 42,-35 7,-15 10,-32 10,-78 V 84 Z" />
    <path d="m 196,0 h 53 v 54 h -53 z" />
  </g>
</svg>
